<?xml version="1.0" standalone="no"?>
<!DOCTYPE svg PUBLIC "-//W3C//DTD SVG 20010904//EN"
 "http://www.w3.org/TR/2001/REC-SVG-20010904/DTD/svg10.dtd">
<svg version="1.0" xmlns="http://www.w3.org/2000/svg"
 width="2047.000000pt" height="2047.000000pt" viewBox="0 0 2047.000000 2047.000000"
 preserveAspectRatio="xMidYMid meet">
<metadata>
Created by potrace 1.14, written by Peter Selinger 2001-2017
</metadata>
<g transform="translate(0.000000,2047.000000) scale(0.100000,-0.100000)"
fill="#000000" stroke="none">
<path d="M9928 20465 c-1 -1 -43 -6 -92 -9 -49 -4 -92 -9 -95 -10 -3 -2 -33
-7 -66 -10 -176 -20 -452 -91 -640 -166 -105 -41 -309 -140 -313 -151 -2 -5
-8 -9 -14 -9 -19 0 -291 -180 -318 -209 -3 -4 -32 -28 -65 -56 -89 -73 -261
-249 -338 -345 -347 -432 -567 -1010 -623 -1640 -3 -36 -7 -81 -10 -100 -22
-204 -22 -1311 1 -1875 9 -237 22 -506 30 -645 3 -47 7 -121 10 -165 14 -235
24 -380 30 -450 3 -27 7 -86 10 -130 8 -123 15 -226 20 -265 2 -19 7 -73 10
-120 4 -47 8 -101 11 -120 6 -51 5 -264 -1 -345 -12 -155 -86 -384 -176 -540
-34 -61 -176 -247 -208 -275 -4 -3 -58 -63 -121 -135 -63 -71 -117 -132 -120
-135 -3 -3 -41 -48 -85 -100 -44 -52 -82 -97 -85 -100 -3 -3 -39 -43 -80 -90
-41 -46 -83 -93 -94 -105 -75 -82 -391 -453 -472 -555 -166 -207 -328 -434
-415 -583 -19 -33 -43 -73 -53 -90 -28 -46 -136 -264 -136 -274 0 -4 -7 -21
-15 -36 -35 -68 -130 -388 -251 -847 -19 -71 -154 -472 -163 -485 -4 -5 -18
-39 -31 -75 -79 -224 -401 -898 -617 -1290 -101 -183 -264 -517 -295 -605 -49
-136 -48 -131 -73 -265 -14 -76 -14 -338 0 -425 12 -72 55 -238 87 -330 l30
-90 -59 -90 c-33 -49 -88 -142 -123 -205 -222 -402 -371 -534 -663 -591 -39
-8 -183 -13 -392 -14 -316 -2 -355 -4 -454 -26 -63 -14 -197 -67 -211 -84 -7
-8 -16 -15 -21 -15 -17 0 -139 -116 -139 -132 0 -3 -6 -13 -13 -20 -38 -38
-99 -215 -112 -323 -7 -54 -7 -274 -1 -340 11 -111 17 -171 22 -227 3 -35 7
-74 9 -88 2 -14 7 -54 10 -90 4 -36 8 -81 10 -100 2 -19 6 -62 10 -95 3 -33 8
-80 11 -105 10 -79 12 -503 4 -570 -5 -36 -11 -87 -14 -113 -9 -76 -56 -255
-87 -335 -16 -40 -66 -148 -110 -240 -144 -294 -169 -369 -175 -512 -11 -286
131 -456 471 -562 44 -14 109 -34 145 -43 113 -31 260 -75 415 -125 83 -27
182 -59 220 -70 87 -27 89 -27 95 -28 3 0 19 -6 35 -12 57 -22 447 -128 615
-166 144 -33 462 -105 480 -109 14 -3 446 -102 480 -111 340 -83 766 -213 925
-283 90 -39 519 -218 595 -247 129 -50 321 -107 400 -119 19 -3 60 -9 90 -14
79 -13 341 -5 438 13 338 63 648 258 862 544 81 108 168 271 211 394 25 71 23
70 104 84 17 3 48 10 69 15 51 14 251 49 359 63 197 27 268 35 467 51 227 18
759 24 1030 11 176 -8 314 -16 359 -21 20 -2 74 -6 121 -10 47 -4 99 -8 115
-10 17 -1 64 -6 105 -9 41 -4 86 -9 100 -11 14 -2 50 -7 80 -10 30 -3 69 -7
85 -9 17 -3 55 -7 85 -10 30 -3 64 -8 75 -10 19 -3 45 -7 170 -22 28 -3 52 -7
55 -9 3 -2 29 -6 59 -10 30 -4 63 -9 75 -11 12 -2 62 -11 111 -19 94 -15 254
-47 462 -90 103 -22 689 -164 803 -195 30 -8 39 -19 64 -70 112 -235 371 -427
747 -556 57 -20 113 -37 124 -40 11 -2 47 -10 80 -18 33 -8 80 -18 105 -22 25
-3 70 -10 100 -14 30 -4 127 -7 215 -5 165 3 285 21 429 65 36 12 67 20 68 18
2 -1 14 5 28 15 13 9 30 17 38 17 13 0 160 71 219 106 201 119 314 211 602
489 79 77 167 162 195 189 45 43 242 218 322 286 121 102 450 334 557 393 22
12 47 27 56 32 9 6 48 28 86 49 39 22 86 48 105 59 19 11 197 100 395 199 652
324 689 344 848 450 131 88 225 171 327 288 36 41 107 154 134 211 89 192 71
363 -54 512 -54 65 -110 111 -265 217 -142 98 -296 215 -420 319 -49 42 -101
85 -114 96 -131 106 -314 292 -391 395 -34 46 -84 129 -111 184 -72 149 -86
212 -104 481 -10 151 -19 207 -46 314 -65 245 -191 399 -385 467 l-51 18 39
110 c46 129 117 410 147 581 6 33 13 71 16 85 3 14 10 54 16 90 5 36 12 77 14
91 25 143 24 566 -1 789 -6 53 -23 190 -30 240 -6 41 -61 363 -69 400 -2 14
-9 48 -15 75 -6 28 -12 59 -14 70 -2 11 -14 61 -26 110 -21 86 -24 103 -34
151 -4 19 -43 166 -76 284 -44 161 -188 609 -233 725 -9 22 -40 105 -71 185
-129 341 -321 748 -443 942 -12 21 -23 40 -23 42 0 3 -23 42 -51 88 -29 46
-61 99 -73 118 -11 19 -23 37 -26 40 -3 3 -11 16 -18 30 -13 25 -199 290 -211
300 -3 3 -29 32 -57 65 -104 124 -89 106 -224 251 -315 338 -378 412 -550 639
-62 83 -130 170 -150 195 -132 163 -352 496 -502 760 -257 452 -416 809 -538
1213 -44 145 -90 339 -105 447 -2 14 -6 39 -9 55 -10 61 -35 266 -41 340 -2
28 -6 88 -10 135 -11 150 -14 247 -20 665 -6 519 -14 912 -20 995 -12 175 -23
305 -29 336 -2 11 -7 48 -11 84 -7 64 -10 80 -20 130 -2 14 -7 41 -10 60 -12
71 -65 268 -100 370 -21 58 -39 115 -42 128 -3 12 -9 25 -14 28 -5 3 -9 12 -9
19 0 39 -209 460 -280 565 -10 14 -35 52 -56 85 -21 33 -57 87 -81 120 -24 33
-51 71 -60 85 -10 13 -52 65 -93 114 -294 355 -611 611 -995 806 -71 36 -150
75 -175 85 -25 10 -63 26 -85 36 -114 49 -464 153 -585 174 -110 19 -209 34
-265 40 -27 3 -66 8 -85 11 -38 5 -536 14 -542 9z"/>
</g>
</svg>
